<svg width="207" height="52" viewBox="0 0 207 52" fill="none" xmlns="http://www.w3.org/2000/svg">
<path d="M2.88 51V23.976H14.544L18.528 48.216H18.624L22.512 23.976H34.128V51H27.168L27.648 26.808H27.6L23.376 51H13.632L9.504 26.808H9.408L9.84 51H2.88ZM48.51 51.48C46.654 51.48 44.926 51.112 43.326 50.376C41.758 49.64 40.494 48.52 39.534 47.016C38.574 45.512 38.094 43.64 38.094 41.4C38.158 39.192 38.654 37.32 39.582 35.784C40.51 34.248 41.758 33.08 43.326 32.28C44.894 31.448 46.638 31.032 48.558 31.032C50.798 31.032 52.654 31.464 54.126 32.328C55.63 33.192 56.75 34.28 57.486 35.592C58.254 36.872 58.638 38.168 58.638 39.48H52.542C52.222 37.624 50.974 36.696 48.798 36.696C47.358 36.696 46.302 37.08 45.63 37.848C44.958 38.616 44.622 39.608 44.622 40.824C44.622 42.328 44.958 43.528 45.63 44.424C46.302 45.32 47.39 45.768 48.894 45.768C49.758 45.768 50.542 45.528 51.246 45.048C51.95 44.568 52.382 43.784 52.542 42.696H58.638C58.638 44.104 58.254 45.48 57.486 46.824C56.75 48.168 55.63 49.288 54.126 50.184C52.622 51.048 50.75 51.48 48.51 51.48ZM62.9738 51V23.976H69.6938V45.288H81.3578V51H62.9738ZM91.1333 51.48C88.4133 51.48 86.5253 50.584 85.4693 48.792C84.4453 46.968 83.9333 44.504 83.9333 41.4C83.9333 39.32 84.1573 37.512 84.6053 35.976C85.0533 34.44 85.8053 33.256 86.8613 32.424C87.9173 31.56 89.3413 31.128 91.1333 31.128C92.4453 31.128 93.5013 31.32 94.3013 31.704C95.1333 32.056 95.7733 32.472 96.2213 32.952C96.6693 33.432 96.9733 33.864 97.1333 34.248C97.2933 34.6 97.3733 34.776 97.3733 34.776H97.4693V31.128H104.381V51H98.5253L97.4693 48.312H97.3733C97.4053 48.312 97.3253 48.472 97.1333 48.792C96.9413 49.112 96.6053 49.48 96.1253 49.896C95.6773 50.312 95.0373 50.68 94.2053 51C93.4053 51.32 92.3813 51.48 91.1333 51.48ZM93.9653 45.96C95.0533 45.96 95.8373 45.752 96.3173 45.336C96.8293 44.888 97.1493 44.312 97.2773 43.608C97.4053 42.904 97.4693 42.184 97.4693 41.448C97.4693 40.68 97.4053 39.96 97.2773 39.288C97.1493 38.584 96.8293 38.024 96.3173 37.608C95.8373 37.192 95.0533 36.984 93.9653 36.984C92.8773 36.984 92.0773 37.208 91.5653 37.656C91.0853 38.072 90.7813 38.616 90.6533 39.288C90.5253 39.96 90.4613 40.68 90.4613 41.448C90.4613 42.216 90.5253 42.952 90.6533 43.656C90.7813 44.328 91.0853 44.888 91.5653 45.336C92.0773 45.752 92.8773 45.96 93.9653 45.96ZM107.524 51V31.128H113.86L114.292 36.792C114.484 35.96 114.852 35.112 115.396 34.248C115.94 33.352 116.724 32.616 117.748 32.04C118.772 31.432 120.116 31.128 121.78 31.128H122.212V38.568H121.732C120.132 38.568 118.772 38.664 117.652 38.856C116.532 39.048 115.684 39.464 115.108 40.104C114.532 40.712 114.244 41.704 114.244 43.08V51H107.524ZM135.077 51.48C132.677 51.48 130.741 51 129.269 50.04C127.797 49.08 126.709 47.848 126.005 46.344C125.333 44.808 124.965 43.208 124.901 41.544C124.837 39.368 125.221 37.496 126.053 35.928C126.885 34.328 128.053 33.112 129.557 32.28C131.093 31.416 132.853 30.984 134.837 30.984C136.725 30.984 138.405 31.384 139.877 32.184C141.381 32.952 142.549 34.056 143.381 35.496C144.245 36.936 144.677 38.664 144.677 40.68V41.928H131.237C131.237 43.336 131.573 44.36 132.245 45C132.949 45.64 133.845 45.96 134.933 45.96C135.861 45.96 136.597 45.752 137.141 45.336C137.717 44.888 138.053 44.328 138.149 43.656H144.629C144.533 45.064 144.117 46.376 143.381 47.592C142.645 48.776 141.589 49.72 140.213 50.424C138.837 51.128 137.125 51.48 135.077 51.48ZM131.333 39.24H137.957C137.957 39.24 137.941 39.096 137.909 38.808C137.909 38.52 137.813 38.184 137.621 37.8C137.429 37.416 137.109 37.08 136.661 36.792C136.213 36.504 135.557 36.36 134.693 36.36C133.829 36.36 133.157 36.504 132.677 36.792C132.197 37.08 131.861 37.416 131.669 37.8C131.509 38.184 131.413 38.52 131.381 38.808C131.349 39.096 131.333 39.24 131.333 39.24ZM148.211 51V31.224H154.019L155.123 34.776H155.219C155.219 34.776 155.299 34.6 155.459 34.248C155.651 33.864 155.971 33.432 156.419 32.952C156.867 32.472 157.491 32.056 158.291 31.704C159.123 31.32 160.179 31.128 161.459 31.128C162.899 31.128 164.051 31.384 164.915 31.896C165.811 32.408 166.483 33.08 166.931 33.912C167.411 34.712 167.731 35.592 167.891 36.552C168.051 37.48 168.131 38.392 168.131 39.288C168.163 40.152 168.179 40.888 168.179 41.496V51H161.651V41.448C161.651 40.744 161.587 40.056 161.459 39.384C161.363 38.712 161.091 38.152 160.643 37.704C160.195 37.224 159.427 36.984 158.339 36.984C157.283 36.984 156.531 37.224 156.083 37.704C155.635 38.152 155.363 38.712 155.267 39.384C155.171 40.056 155.123 40.744 155.123 41.448V51H148.211Z" fill="black"/>
<g clip-path="url(#clip0_5_2)">
<path d="M147.854 24.5453C170.374 11.8856 247.032 -3.2844 177.461 42.0892C203.661 15.7706 154.152 21.5094 147.854 24.5453Z" fill="black" stroke="black"/>
</g>
<defs>
<clipPath id="clip0_5_2">
<rect width="56.7998" height="33.2618" fill="white" transform="translate(150.385 5) rotate(7.5749)"/>
</clipPath>
</defs>
</svg>
